<?xml version="1.0" encoding="UTF-8" standalone="no"?><!-- Generator: Gravit.io --><svg xmlns="http://www.w3.org/2000/svg" xmlns:xlink="http://www.w3.org/1999/xlink" style="isolation:isolate" viewBox="0 0 1149.961 458.735" width="1149.961pt" height="458.735pt"><defs><clipPath id="_clipPath_DRPQCiyN4KpC4yx1W0lb09EGRSUyECW5"><rect width="1149.961" height="458.735"/></clipPath></defs><g clip-path="url(#_clipPath_DRPQCiyN4KpC4yx1W0lb09EGRSUyECW5)"><mask id="_mask_yyRwWM8pUSeC60oL7183Ix7CNegXUgwd"><rect x="24.1" y="175.218" width="148.8" height="43.578" fill="white" stroke="none"/></mask><rect x="24.1" y="175.218" width="148.8" height="43.578" transform="matrix(1,0,0,1,0,0)" fill="none"/><rect x="24.1" y="175.218" width="148.8" height="43.578" transform="matrix(1,0,0,1,0,0)" fill="none" mask="url(#_mask_yyRwWM8pUSeC60oL7183Ix7CNegXUgwd)" vector-effect="non-scaling-stroke" stroke-width="4" stroke="rgb(0,0,0)" stroke-linejoin="miter" stroke-linecap="square" stroke-miterlimit="2"/><g clip-path="url(#_clipPath_e3PjryoN6tSZkvllFhKrPEioZC3Fzs5B)"><text transform="matrix(1,0,0,1,38.367,35.376)" style="font-family:'Cantarell';font-weight:400;font-size:20px;font-style:normal;fill:#000000;stroke:none;">Species found </text><text transform="matrix(1,0,0,1,72.811,61.665)" style="font-family:'Cantarell';font-weight:400;font-size:20px;font-style:normal;fill:#000000;stroke:none;">in data</text></g><defs><clipPath id="_clipPath_e3PjryoN6tSZkvllFhKrPEioZC3Fzs5B"><rect x="0" y="0" width="139.247" height="52.578" transform="matrix(1,0,0,1,35.247,14.507)"/></clipPath></defs><g clip-path="url(#_clipPath_oPmQdGmATvP9K0ze72WyH8f1sOeqVdGS)"><text transform="matrix(1,0,0,1,241.923,48.521)" style="font-family:'Cantarell';font-weight:400;font-size:20px;font-style:normal;fill:#000000;stroke:none;">Guesses for possible reactions</text></g><defs><clipPath id="_clipPath_oPmQdGmATvP9K0ze72WyH8f1sOeqVdGS"><rect x="0" y="0" width="286" height="26.289" transform="matrix(1,0,0,1,241.525,27.651)"/></clipPath></defs><g clip-path="url(#_clipPath_wETMDsX46SBR4a4PwE2XTIX4aOuvmmC6)"><text transform="matrix(1,0,0,1,593.965,36.516)" style="font-family:'Cantarell';font-weight:400;font-size:20px;font-style:normal;fill:#000000;stroke:none;">Define which reaction </text><text transform="matrix(1,0,0,1,591.319,62.805)" style="font-family:'Cantarell';font-weight:400;font-size:20px;font-style:normal;fill:#000000;stroke:none;">apply to which species</text></g><defs><clipPath id="_clipPath_wETMDsX46SBR4a4PwE2XTIX4aOuvmmC6"><rect x="0" y="0" width="216.441" height="57.733" transform="matrix(1,0,0,1,587.824,15.647)"/></clipPath></defs><g clip-path="url(#_clipPath_G4sOLCKVf8ofbgzWb1K5SQr11AY1xBUK)"><text transform="matrix(1,0,0,1,866.567,35.376)" style="font-family:'Cantarell';font-weight:400;font-size:20px;font-style:normal;fill:#000000;stroke:none;">Define all ODE combination </text><text transform="matrix(1,0,0,1,927.607,61.665)" style="font-family:'Cantarell';font-weight:400;font-size:20px;font-style:normal;fill:#000000;stroke:none;">guesses to run</text></g><defs><clipPath id="_clipPath_G4sOLCKVf8ofbgzWb1K5SQr11AY1xBUK"><rect x="0" y="0" width="306.056" height="52.578" transform="matrix(1,0,0,1,843.279,14.507)"/></clipPath></defs><g clip-path="url(#_clipPath_ZsPThBCyVDMJyZvUQ58wLINub0qndTsi)"><text transform="matrix(1,0,0,1,31,209.422)" style="font-family:'Open Sans';font-weight:400;font-size:32px;font-style:normal;fill:#000000;stroke:none;">A, B, C, D</text></g><defs><clipPath id="_clipPath_ZsPThBCyVDMJyZvUQ58wLINub0qndTsi"><rect x="0" y="0" width="135" height="43.578" transform="matrix(1,0,0,1,31,175.218)"/></clipPath></defs><g clip-path="url(#_clipPath_TY018W78oK6SjkllB0p9Qz2AonqQhpMQ)"><text transform="matrix(1,0,0,1,253,122.754)" style="font-family:'Open Sans';font-weight:400;font-size:20px;font-style:normal;fill:#000000;stroke:none;">Reaction 1:</text></g><defs><clipPath id="_clipPath_TY018W78oK6SjkllB0p9Qz2AonqQhpMQ"><rect x="0" y="0" width="105" height="27.236" transform="matrix(1,0,0,1,253,101.377)"/></clipPath></defs><g clip-path="url(#_clipPath_23H7LpAv0PGKdA8pTpWqFAO3m5mMwa7i)"><text transform="matrix(1,0,0,1,405.107,125.208)" style="font-family:'Open Sans';font-weight:400;font-size:20px;font-style:normal;fill:#000000;stroke:none;">&#x26;</text></g><defs><clipPath id="_clipPath_23H7LpAv0PGKdA8pTpWqFAO3m5mMwa7i"><rect x="0" y="0" width="17" height="27.236" transform="matrix(1,0,0,1,405.107,103.831)"/></clipPath></defs><g clip-path="url(#_clipPath_AKjbtGm4NHUprEIOKidpdazmj5BVw5g2)"><text transform="matrix(1,0,0,1,405.107,171.813)" style="font-family:'Open Sans';font-weight:400;font-size:20px;font-style:normal;fill:#000000;stroke:none;">&#x26;</text></g><defs><clipPath id="_clipPath_AKjbtGm4NHUprEIOKidpdazmj5BVw5g2"><rect x="0" y="0" width="17" height="27.236" transform="matrix(1,0,0,1,405.107,150.436)"/></clipPath></defs><g clip-path="url(#_clipPath_1U9CS0WPomMKb6Wg4MrvyWt3JgYMRzJm)"><text transform="matrix(1,0,0,1,463.271,171.813)" style="font-family:'Open Sans';font-weight:400;font-size:20px;font-style:normal;fill:#000000;stroke:none;">&#x26;</text></g><defs><clipPath id="_clipPath_1U9CS0WPomMKb6Wg4MrvyWt3JgYMRzJm"><rect x="0" y="0" width="17" height="27.236" transform="matrix(1,0,0,1,463.271,150.436)"/></clipPath></defs><g clip-path="url(#_clipPath_yEMYEyOUnZfQkUWUhkk9yt0NDHRuvaL7)"><text transform="matrix(1,0,0,1,253,169.359)" style="font-family:'Open Sans';font-weight:400;font-size:20px;font-style:normal;fill:#000000;stroke:none;">Reaction 2:</text></g><defs><clipPath id="_clipPath_yEMYEyOUnZfQkUWUhkk9yt0NDHRuvaL7"><rect x="0" y="0" width="105" height="27.236" transform="matrix(1,0,0,1,253,147.982)"/></clipPath></defs><rect x="368.453" y="101.377" width="32.145" height="32.145" transform="matrix(1,0,0,1,0,0)" fill="rgb(30,186,238)"/><rect x="991.097" y="112.027" width="32.145" height="32.145" transform="matrix(1,0,0,1,0,0)" fill="rgb(30,186,238)"/><rect x="991.097" y="156.244" width="32.145" height="32.145" transform="matrix(1,0,0,1,0,0)" fill="rgb(38,82,227)"/><rect x="991.097" y="200.462" width="32.145" height="32.145" transform="matrix(1,0,0,1,0,0)" fill="rgb(30,186,238)"/><rect x="991.097" y="244.679" width="32.145" height="32.145" transform="matrix(1,0,0,1,0,0)" fill="rgb(38,82,227)"/><rect x="426.617" y="101.377" width="32.145" height="32.145" transform="matrix(1,0,0,1,0,0)" fill="rgb(38,82,227)"/><rect x="1077.644" y="112.027" width="32.145" height="32.145" transform="matrix(1,0,0,1,0,0)" fill="rgb(156,76,232)"/><rect x="1077.644" y="156.244" width="32.145" height="32.145" transform="matrix(1,0,0,1,0,0)" fill="rgb(156,76,232)"/><rect x="1077.644" y="200.462" width="32.145" height="32.145" transform="matrix(1,0,0,1,0,0)" fill="rgb(240,91,238)"/><rect x="1077.644" y="244.679" width="32.145" height="32.145" transform="matrix(1,0,0,1,0,0)" fill="rgb(240,91,238)"/><rect x="368.453" y="147.982" width="32.145" height="32.145" transform="matrix(1,0,0,1,0,0)" fill="rgb(156,76,232)"/><rect x="426.617" y="147.982" width="32.145" height="32.145" transform="matrix(1,0,0,1,0,0)" fill="rgb(240,91,238)"/><rect x="484.781" y="147.982" width="32.145" height="32.145" transform="matrix(1,0,0,1,0,0)" fill="rgb(230,32,72)"/><g clip-path="url(#_clipPath_1Xy0pdOoyEEpmubYZgUEanjtVeqQ9IEX)"><text transform="matrix(1,0,0,1,645.044,153.125)" style="font-family:'Open Sans';font-weight:400;font-size:20px;font-style:normal;fill:#000000;stroke:none;">dA/dt = -r1</text></g><defs><clipPath id="_clipPath_1Xy0pdOoyEEpmubYZgUEanjtVeqQ9IEX"><rect x="0" y="0" width="102" height="27.236" transform="matrix(1,0,0,1,645.044,131.748)"/></clipPath></defs><g clip-path="url(#_clipPath_9F6ofYIl6O8yEPWilQTCjtNa7npSFNbl)"><text transform="matrix(1,0,0,1,864.644,135.858)" style="font-family:'Open Sans';font-weight:400;font-size:20px;font-style:normal;fill:#000000;stroke:none;">Option 1: r1=        , r2= </text></g><defs><clipPath id="_clipPath_9F6ofYIl6O8yEPWilQTCjtNa7npSFNbl"><rect x="0" y="0" width="213" height="27.236" transform="matrix(1,0,0,1,864.644,114.481)"/></clipPath></defs><g clip-path="url(#_clipPath_zVzIjcKIC6t1CVxVBfTWoVkS9RInOxHy)"><text transform="matrix(1,0,0,1,864.644,180.076)" style="font-family:'Open Sans';font-weight:400;font-size:20px;font-style:normal;fill:#000000;stroke:none;">Option 2: r1=        , r2= </text></g><defs><clipPath id="_clipPath_zVzIjcKIC6t1CVxVBfTWoVkS9RInOxHy"><rect x="0" y="0" width="213" height="27.236" transform="matrix(1,0,0,1,864.644,158.699)"/></clipPath></defs><g clip-path="url(#_clipPath_xjncTEBKjMJ7oLIP2CJ61zcXmOU1Fhxf)"><text transform="matrix(1,0,0,1,864.644,224.293)" style="font-family:'Open Sans';font-weight:400;font-size:20px;font-style:normal;fill:#000000;stroke:none;">Option 3: r1=        , r2= </text></g><defs><clipPath id="_clipPath_xjncTEBKjMJ7oLIP2CJ61zcXmOU1Fhxf"><rect x="0" y="0" width="213" height="27.236" transform="matrix(1,0,0,1,864.644,202.916)"/></clipPath></defs><g clip-path="url(#_clipPath_jzsP3xWs86mARvz4ibdF0FS0GRUqw3Hf)"><text transform="matrix(1,0,0,1,864.644,268.51)" style="font-family:'Open Sans';font-weight:400;font-size:20px;font-style:normal;fill:#000000;stroke:none;">Option 4: r1=        , r2= </text></g><defs><clipPath id="_clipPath_jzsP3xWs86mARvz4ibdF0FS0GRUqw3Hf"><rect x="0" y="0" width="213" height="27.236" transform="matrix(1,0,0,1,864.644,247.133)"/></clipPath></defs><g clip-path="url(#_clipPath_gduGX7roPt7kRFtSON22Ed8HhxpBnmpH)"><text transform="matrix(1,0,0,1,645.044,188.566)" style="font-family:'Open Sans';font-weight:400;font-size:20px;font-style:normal;fill:#000000;stroke:none;">dB/dt = r1</text></g><defs><clipPath id="_clipPath_gduGX7roPt7kRFtSON22Ed8HhxpBnmpH"><rect x="0" y="0" width="96" height="27.236" transform="matrix(1,0,0,1,645.044,167.189)"/></clipPath></defs><g clip-path="url(#_clipPath_7h3NAqZ0NniRHQQ3pct2OJJBWPqB3sqW)"><text transform="matrix(1,0,0,1,645.044,224.007)" style="font-family:'Open Sans';font-weight:400;font-size:20px;font-style:normal;fill:#000000;stroke:none;">dC/dt = -r2</text></g><defs><clipPath id="_clipPath_7h3NAqZ0NniRHQQ3pct2OJJBWPqB3sqW"><rect x="0" y="0" width="102" height="27.236" transform="matrix(1,0,0,1,645.044,202.63)"/></clipPath></defs><g clip-path="url(#_clipPath_lFTlIAWuwcFzDksnVXpYgeTwPofHKYSX)"><text transform="matrix(1,0,0,1,645.044,259.448)" style="font-family:'Open Sans';font-weight:400;font-size:20px;font-style:normal;fill:#000000;stroke:none;">dD/dt = r2</text></g><defs><clipPath id="_clipPath_lFTlIAWuwcFzDksnVXpYgeTwPofHKYSX"><rect x="0" y="0" width="97" height="27.236" transform="matrix(1,0,0,1,645.044,238.071)"/></clipPath></defs><line x1="0.5" y1="304.4" x2="1149.336" y2="304.4" vector-effect="non-scaling-stroke" stroke-width="2" stroke="rgb(0,0,0)" stroke-linejoin="miter" stroke-linecap="square" stroke-miterlimit="3"/><line x1="0.5" y1="88.4" x2="1149.336" y2="88.4" vector-effect="non-scaling-stroke" stroke-width="2" stroke="rgb(0,0,0)" stroke-linejoin="miter" stroke-linecap="square" stroke-miterlimit="3"/><line x1="202.47" y1="0.5" x2="202.47" y2="458.235" vector-effect="non-scaling-stroke" stroke-width="2" stroke="rgb(0,0,0)" stroke-linejoin="miter" stroke-linecap="square" stroke-miterlimit="3"/><line x1="558.538" y1="0.5" x2="558.538" y2="458.235" vector-effect="non-scaling-stroke" stroke-width="2" stroke="rgb(0,0,0)" stroke-linejoin="miter" stroke-linecap="square" stroke-miterlimit="3"/><line x1="827.076" y1="0.5" x2="827.076" y2="458.235" vector-effect="non-scaling-stroke" stroke-width="2" stroke="rgb(0,0,0)" stroke-linejoin="miter" stroke-linecap="square" stroke-miterlimit="3"/><g style="isolation:isolate"><g><path d=" M 350.491 129.834 L 354.31 133.839 L 358.13 137.845 L 361.95 141.85 L 365.232 127.248 L 350.491 129.834 Z " fill="rgb(0,0,0)"/><line x1="357.861" y1="134.549" x2="350.222" y2="140.975" vector-effect="non-scaling-stroke" stroke-width="2" stroke="rgb(0,0,0)" stroke-linejoin="miter" stroke-linecap="square" stroke-miterlimit="3"/><line x1="228.453" y1="140.975" x2="350.222" y2="140.975" vector-effect="non-scaling-stroke" stroke-width="2" stroke="rgb(0,0,0)" stroke-linejoin="miter" stroke-linecap="square" stroke-miterlimit="3"/><line x1="228.453" y1="215.6" x2="228.453" y2="140.975" vector-effect="non-scaling-stroke" stroke-width="2" stroke="rgb(0,0,0)" stroke-linejoin="miter" stroke-linecap="square" stroke-miterlimit="3"/></g><g><path d=" M 476.77 109.954 L 476.77 115.488 L 476.77 121.023 L 476.77 126.558 L 464.317 118.256 L 476.77 109.954 Z " fill="rgb(0,0,0)"/><mask id="_mask_Bn6y7jO7jC2d75wbuNc5LrnndtXFtyLI" x="-200%" y="-200%" width="400%" height="400%"><rect x="-200%" y="-200%" width="400%" height="400%" style="fill:white;"/><line x1="533.7" y1="118.256" x2="476.77" y2="118.256" fill="black" stroke="none"/></mask><line x1="533.7" y1="118.256" x2="476.77" y2="118.256" mask="url(#_mask_Bn6y7jO7jC2d75wbuNc5LrnndtXFtyLI)" vector-effect="non-scaling-stroke" stroke-width="2" stroke="rgb(0,0,0)" stroke-linejoin="miter" stroke-linecap="butt" stroke-miterlimit="4"/><mask id="_mask_qQtiEqdZ1uDaCgozi7yWqEjsq7EGU5Ah" x="-200%" y="-200%" width="400%" height="400%"><rect x="-200%" y="-200%" width="400%" height="400%" style="fill:white;"/><line x1="533.7" y1="202.725" x2="476.77" y2="202.725" fill="black" stroke="none"/></mask><line x1="533.7" y1="202.725" x2="476.77" y2="202.725" mask="url(#_mask_qQtiEqdZ1uDaCgozi7yWqEjsq7EGU5Ah)" vector-effect="non-scaling-stroke" stroke-width="2" stroke="rgb(0,0,0)" stroke-linejoin="miter" stroke-linecap="butt" stroke-miterlimit="4"/><line x1="533.7" y1="202.725" x2="533.7" y2="118.256" vector-effect="non-scaling-stroke" stroke-width="2" stroke="rgb(0,0,0)" stroke-linejoin="miter" stroke-linecap="square" stroke-miterlimit="3"/><line x1="476.77" y1="222.6" x2="476.77" y2="202.725" vector-effect="non-scaling-stroke" stroke-width="2" stroke="rgb(0,0,0)" stroke-linejoin="miter" stroke-linecap="square" stroke-miterlimit="3"/></g><g clip-path="url(#_clipPath_2AW4pULFMLZcKJUNgooG247yD81k5i8b)"><text transform="matrix(1,0,0,1,210.965,238.265)" style="font-family:'Open Sans';font-weight:400;font-size:16px;font-style:normal;fill:#000000;stroke:none;">For example this </text><text transform="matrix(1,0,0,1,212.516,260.054)" style="font-family:'Open Sans';font-weight:400;font-size:16px;font-style:normal;fill:#000000;stroke:none;">could simply be:</text></g><defs><clipPath id="_clipPath_2AW4pULFMLZcKJUNgooG247yD81k5i8b"><rect x="0" y="0" width="134.95" height="43.578" transform="matrix(1,0,0,1,206.432,221.163)"/></clipPath></defs><g clip-path="url(#_clipPath_lcZhBvgbwKJ9zCwMFcUpLkTwWDVU14Ru)"><text transform="matrix(0.761,0,0,0.761,284.65,292.031)" style="font-family:'Open Sans';font-weight:400;font-size:32px;font-style:normal;fill:#000000;stroke:none;">B</text></g><defs><clipPath id="_clipPath_lcZhBvgbwKJ9zCwMFcUpLkTwWDVU14Ru"><rect x="0" y="0" width="23" height="43.578" transform="matrix(0.761,0,0,0.761,284.65,266.009)"/></clipPath></defs><g clip-path="url(#_clipPath_aobPv6LqBAADaS7WNn12sBvCrlG5feqk)"><text transform="matrix(0.741,0,0,0.741,488.753,290.097)" style="font-family:'Open Sans';font-weight:400;font-size:32px;font-style:normal;fill:#000000;stroke:none;">B+C</text></g><defs><clipPath id="_clipPath_aobPv6LqBAADaS7WNn12sBvCrlG5feqk"><rect x="0" y="0" width="62" height="43.578" transform="matrix(0.741,0,0,0.741,488.753,264.741)"/></clipPath></defs><path d=" M 274.668 278.021 L 274.668 281.064 L 266.299 281.064 L 266.299 284.108 L 274.668 284.108 L 274.668 287.151 L 281.515 282.586 L 274.668 278.021 Z " fill="rgb(0,0,0)"/><path d=" M 478.841 279.676 L 478.841 282.641 L 470.686 282.641 L 470.686 285.606 L 478.841 285.606 L 478.841 288.572 L 485.513 284.124 L 478.841 279.676 Z " fill="rgb(0,0,0)"/><g clip-path="url(#_clipPath_3o1czQl96IkiuYp1madwRnmFvAZRKtNX)"><text transform="matrix(0.761,0,0,0.761,245.665,292.031)" style="font-family:'Open Sans';font-weight:400;font-size:32px;font-style:normal;fill:#000000;stroke:none;">A</text></g><defs><clipPath id="_clipPath_3o1czQl96IkiuYp1madwRnmFvAZRKtNX"><rect x="0" y="0" width="23" height="43.578" transform="matrix(0.761,0,0,0.761,245.665,266.009)"/></clipPath></defs><g clip-path="url(#_clipPath_2IYzfMNZpq3rfcxF38pcxkaeFdM0KvHw)"><text transform="matrix(0.741,0,0,0.741,421.482,290.097)" style="font-family:'Open Sans';font-weight:400;font-size:32px;font-style:normal;fill:#000000;stroke:none;">A+C</text></g><defs><clipPath id="_clipPath_2IYzfMNZpq3rfcxF38pcxkaeFdM0KvHw"><rect x="0" y="0" width="61" height="43.578" transform="matrix(0.741,0,0,0.741,421.482,264.741)"/></clipPath></defs><g clip-path="url(#_clipPath_CfgspiJm8MdxWOnHAMp8wsiS8lfUaKoE)"><text transform="matrix(1,0,0,1,440.595,238.265)" style="font-family:'Open Sans';font-weight:400;font-size:16px;font-style:normal;fill:#000000;stroke:none;">While this </text><text transform="matrix(1,0,0,1,443.025,260.054)" style="font-family:'Open Sans';font-weight:400;font-size:16px;font-style:normal;fill:#000000;stroke:none;">could be:</text></g><defs><clipPath id="_clipPath_CfgspiJm8MdxWOnHAMp8wsiS8lfUaKoE"><rect x="0" y="0" width="90.59" height="43.578" transform="matrix(1,0,0,1,432.804,221.163)"/></clipPath></defs><g clip-path="url(#_clipPath_qvYrkRUQIM4wgnCmIRdtP02VRD9Ub5An)"><text transform="matrix(1,0,0,1,88.438,329.845)" style="font-family:'Cantarell';font-weight:700;font-size:20px;font-style:normal;fill:#000000;stroke:none;">All </text><text transform="matrix(1,0,0,1,35.786,356.622)" style="font-family:'Cantarell';font-weight:700;font-size:20px;font-style:normal;fill:#000000;stroke:none;">participating </text><text transform="matrix(1,0,0,1,27.28,383.4)" style="font-family:'Cantarell';font-weight:700;font-size:20px;font-style:normal;fill:#000000;stroke:none;">species define </text><text transform="matrix(1,0,0,1,64.263,410.177)" style="font-family:'Cantarell';font-weight:700;font-size:20px;font-style:normal;fill:#000000;stroke:none;">what is </text><text transform="matrix(1,0,0,1,28.921,436.954)" style="font-family:'Cantarell';font-weight:700;font-size:20px;font-style:normal;fill:#000000;stroke:none;">accounted for</text></g><defs><clipPath id="_clipPath_qvYrkRUQIM4wgnCmIRdtP02VRD9Ub5An"><rect x="0" y="0" width="158.4" height="133.887" transform="matrix(1,0,0,1,24.1,308.781)"/></clipPath></defs><g clip-path="url(#_clipPath_ZdLuDdCTXdyWTqhhDgovjtXXCLlDpFCn)"><text transform="matrix(1,0,0,1,231.192,370.011)" style="font-family:'Cantarell';font-weight:700;font-size:20px;font-style:normal;fill:#000000;stroke:none;">Here researchers can define </text><text transform="matrix(1,0,0,1,230.265,396.788)" style="font-family:'Cantarell';font-weight:700;font-size:20px;font-style:normal;fill:#000000;stroke:none;">a host of potential reactions</text></g><defs><clipPath id="_clipPath_ZdLuDdCTXdyWTqhhDgovjtXXCLlDpFCn"><rect x="0" y="0" width="302.255" height="53.555" transform="matrix(1,0,0,1,228.453,348.947)"/></clipPath></defs><g clip-path="url(#_clipPath_MkZkiYyFwWTow5v3kirKpn3hrNStQyo7)"><text transform="matrix(1,0,0,1,616.495,370.011)" style="font-family:'Cantarell';font-weight:700;font-size:20px;font-style:normal;fill:#000000;stroke:none;">Structure the </text><text transform="matrix(1,0,0,1,601.949,396.788)" style="font-family:'Cantarell';font-weight:700;font-size:20px;font-style:normal;fill:#000000;stroke:none;">system of ODEs</text></g><defs><clipPath id="_clipPath_MkZkiYyFwWTow5v3kirKpn3hrNStQyo7"><rect x="0" y="0" width="223.428" height="53.555" transform="matrix(1,0,0,1,576.66,348.947)"/></clipPath></defs><g clip-path="url(#_clipPath_vxwMhiBRXdvdSllwbqOfdHNbyZaCxPtL)"><text transform="matrix(1,0,0,1,849.943,356.622)" style="font-family:'Cantarell';font-weight:700;font-size:20px;font-style:normal;fill:#000000;stroke:none;">Like this a host of guessed </text><text transform="matrix(1,0,0,1,840.445,383.4)" style="font-family:'Cantarell';font-weight:700;font-size:20px;font-style:normal;fill:#000000;stroke:none;">systems can be fit in an easy </text><text transform="matrix(1,0,0,1,909.718,410.177)" style="font-family:'Cantarell';font-weight:700;font-size:20px;font-style:normal;fill:#000000;stroke:none;">to scale format</text></g><defs><clipPath id="_clipPath_vxwMhiBRXdvdSllwbqOfdHNbyZaCxPtL"><rect x="0" y="0" width="302.255" height="80.332" transform="matrix(1,0,0,1,839.581,335.558)"/></clipPath></defs></g></g></svg>